#!OML:ASF F:\VICON\USERDATA\INSTALL\Justin_Nancy\Justin_Nancy.ASF
:FULLY-SPECIFIED
:DEGREES
86
root 0.235803 17.6819 15.5613 6.95862 -1.81303 5.45926
lowerback 6.56638 -1.67782 -6.47243
upperback -1.53158 -2.71411 1.57503
thorax -4.91702 -1.12671 5.57664
lowerneck -21.6784 -0.940248 -8.13104
upperneck 16.2714 -0.378124 7.7844
head 8.66564 0.162392 3.95625
rclavicle 2.61402e-014 6.36111e-015
rhumerus -75.2697 7.88406 -93.9237
rradius 118.332
rwrist -17.5121
rhand -13.6793 32.3218
rfingers 7.12502
rthumb 12.4383 2.7119
lclavicle 2.61402e-014 6.36111e-015
lhumerus -34.1047 -16.1946 99.9196
lradius 138.836
lwrist 31.6057
lhand -11.29 5.36028
lfingers 7.12502
lthumb 14.7411 34.8161
rfemur -48.4876 -7.51488 19.0869
rtibia 54.5108
rfoot 3.55399 4.55409
rtoes -13.4969
lfemur 18.0449 -6.08608 -33.2762
ltibia 20.3636
lfoot 29.3406 -6.19919
ltoes -9.73776
87
root 0.198922 17.7873 16.0927 8.09552 -2.84164 3.5237
lowerback 7.12081 -1.4987 -5.18625
upperback -2.27112 -2.36678 2.30351
thorax -6.08058 -0.921146 5.63394
lowerneck -22.1294 -0.775146 -8.09378
upperneck 16.8551 -0.117333 7.62294
head 8.9202 0.271965 3.94944
rclavicle 4.19436e-014 1.19271e-014
rhumerus -76.1566 7.57843 -93.485
rradius 118.815
rwrist -17.1799
rhand -13.4604 32.4771
rfingers 7.12502
rthumb 12.6494 2.8801
lclavicle 4.19436e-014 1.19271e-014
lhumerus -34.6834 -16.711 99.7128
lradius 138.667
lwrist 29.966
lhand -11.495 5.47444
lfingers 7.12502
lthumb 14.5436 34.9446
rfemur -48.8308 -4.93339 21.44
rtibia 48.2994
rfoot 5.42517 3.16747
rtoes -14.8415
lfemur 17.396 -6.66507 -31.5023
ltibia 20.5618
lfoot 31.0768 -7.88153
ltoes -8.71233
88
root 0.186995 17.8347 16.7286 8.16869 -3.74733 3.54174
lowerback 6.84329 -1.38781 -5.33987
upperback -2.20933 -2.21744 2.32446
thorax -5.8707 -0.850737 5.71284
lowerneck -22.5081 -0.631233 -7.98132
upperneck 16.9531 0.115837 7.41057
head 8.99937 0.369552 3.89552
rclavicle 2.05742e-014 -1.59028e-015
rhumerus -76.6329 7.22875 -93.1016
rradius 119.197
rwrist -16.7877
rhand -13.1831 32.5382
rfingers 7.12502
rthumb 12.9167 2.95792
lclavicle 2.05742e-014 -1.59028e-015
lhumerus -35.0233 -17.0971 99.387
lradius 138.103
lwrist 28.3933
lhand -11.1156 5.04137
lfingers 7.12502
lthumb 14.9092 34.4848
rfemur -47.9251 -4.46562 21.8438
rtibia 42.6549
rfoot 6.54105 2.71131
rtoes -15.1459
lfemur 18.0687 -7.16706 -32.2496
ltibia 21.4564
lfoot 31.0346 -8.44389
ltoes -5.00989
89
root 0.200132 17.8743 17.3529 7.86298 -4.06937 4.01809
lowerback 7.21442 -1.41691 -5.48472
upperback -2.15599 -2.29756 2.15486
thorax -6.01712 -0.883546 5.63841
lowerneck -22.6455 -0.553304 -7.92707
upperneck 16.8168 0.264963 7.20837
head 8.96367 0.42331 3.83387
rclavicle -5.35725e-014 1.11319e-014
rhumerus -77.2627 6.77541 -92.7301
rradius 119.755
rwrist -16.3536
rhand -13.1235 32.5085
rfingers 7.12502
rthumb 12.9741 2.9319
lclavicle -5.35725e-014 1.11319e-014
lhumerus -35.5135 -17.2523 99.1014
lradius 137.189
lwrist 26.8708
lhand -10.6512 4.3599
lfingers 7.12502
lthumb 15.3565 33.7697
rfemur -46.4154 -5.40874 22.0527
rtibia 37.0066
rfoot 7.62004 2.35113
rtoes -13.8041
lfemur 18.5052 -7.83003 -33.4285
ltibia 23.6517
lfoot 30.0447 -8.74539
ltoes -2.01131
90
root 0.205287 17.897 17.9709 7.66304 -4.54806 4.46889
lowerback 7.52424 -1.38403 -5.73218
upperback -2.11589 -2.30474 1.96855
thorax -6.14997 -0.876819 5.59433
lowerneck -23.0427 -0.559167 -7.95381
upperneck 16.8678 0.296906 7.19771
head 9.04734 0.440301 3.84614
rclavicle -2.14687e-014 3.73715e-014
rhumerus -77.7914 6.35477 -92.5058
rradius 120.336
rwrist -15.8708
rhand -13.0139 32.5532
rfingers 7.12502
rthumb 13.0798 2.98337
lclavicle -2.14687e-014 3.73715e-014
lhumerus -36.1267 -17.4669 98.9521
lradius 136.299
lwrist 26.2904
lhand -11.1468 4.58371
lfingers 7.12502
lthumb 14.8791 34.0294
rfemur -45.3333 -6.14354 22.401
rtibia 32.4188
rfoot 8.62989 1.00253
rtoes -13.1496
lfemur 18.9951 -8.21013 -34.5001
ltibia 25.3723
lfoot 30.1622 -9.4084
ltoes 0.831901
91
root 0.203615 17.9052 18.5856 7.46468 -5.05005 4.74139
lowerback 7.58525 -1.27659 -5.85507
upperback -1.9027 -2.18278 1.78593
thorax -5.9778 -0.82755 5.45191
lowerneck -23.7396 -0.586218 -7.80396
upperneck 17.0096 0.279594 7.09673
head 9.21919 0.438743 3.79754
rclavicle 4.46272e-014 -7.15625e-015
rhumerus -77.779 5.74111 -92.2902
rradius 120.614
rwrist -15.169
rhand -12.9632 32.6521
rfingers 7.12502
rthumb 13.1286 3.08542
lclavicle 4.46272e-014 -7.15625e-015
lhumerus -36.5983 -17.9394 99.0441
lradius 135.33
lwrist 26.7537
lhand -12.4432 5.37737
lfingers 7.12502
lthumb 13.6299 34.9111
rfemur -44.338 -6.68423 22.9525
rtibia 28.6292
rfoot 9.26179 -0.628045
rtoes -14.2138
lfemur 19.0786 -8.35422 -35.2767
ltibia 27.6971
lfoot 30.7614 -10.2614
ltoes 4.55304
92
root 0.200198 17.9071 19.2096 7.18067 -5.522 5.20506
lowerback 7.5945 -1.13941 -6.14746
upperback -1.72792 -2.03812 1.55203
thorax -5.81692 -0.760647 5.3483
lowerneck -23.8893 -0.629151 -7.80659
upperneck 16.8211 0.240892 7.08971
head 9.18268 0.423641 3.78721
rclavicle 2.88238e-015 -1.19271e-014
rhumerus -77.5734 5.08088 -92.0605
rradius 120.533
rwrist -14.3985
rhand -13.0272 32.9751
rfingers 7.12502
rthumb 13.0669 3.40445
lclavicle 2.88238e-015 -1.19271e-014
lhumerus -37.2641 -18.1389 99.1839
lradius 134.034
lwrist 26.9214
lhand -13.135 5.57614
lfingers 7.12502
lthumb 12.9631 35.1534
rfemur -43.3796 -7.43103 23.3621
rtibia 25.6917
rfoot 9.5716 -1.8569
rtoes -15.5746
lfemur 18.7696 -8.46271 -36.1896
ltibia 30.5805
lfoot 31.6913 -10.2829
ltoes 5.36995
